<?xml version="1.0" encoding="utf-8"?>
<!-- Generator: Adobe Illustrator 26.4.1, SVG Export Plug-In . SVG Version: 6.00 Build 0)  -->
<svg version="1.0" id="katman_1" xmlns="http://www.w3.org/2000/svg" xmlns:xlink="http://www.w3.org/1999/xlink" x="0px" y="0px"
	 viewBox="0 0 841.9 595.3" style="enable-background:new 0 0 841.9 595.3;" xml:space="preserve">
<style type="text/css">
	.st0{fill:#010202;}
</style>
<g>
	<g>
		<g>
			<g>
				<path class="st0" d="M582.9,339.2h27.3v-75.8c0-12.8,10.4-23.7,23.7-23.7h5.2c3.6,0,6.8,0.8,10,2.4l11.6-24.9
					c-6.8-3.2-14-4.8-21.7-4.8h-5.2c-28.1,0-50.9,22.9-50.9,50.9L582.9,339.2L582.9,339.2z"/>
				<path class="st0" d="M132.6,212.5h-14.4c-28.1,0-50.9,22.9-50.9,50.9v118.7h27.3v-43.7c6.4,3.2,13.6,4.8,20.9,4.8h14.8
					c29.3,0,52.9-23.7,52.9-52.9v-26.9C183.5,235.3,160.7,212.5,132.6,212.5z M156.2,290.3c0,14-11.6,25.7-25.7,25.7h-14.8
					c-11.6,0-20.8-9.2-20.8-20.8v-31.7c0-12.8,10.4-23.7,23.7-23.7H133c12.8,0,23.7,10.4,23.7,23.7v26.9L156.2,290.3L156.2,290.3z"
					/>
				<path class="st0" d="M94.5,382.1L94.5,382.1L94.5,382.1L94.5,382.1z"/>
				<path class="st0" d="M265.3,212.5h-22.9c-21.3,0-39.3,14-42.9,32.5l26.9,6c0.4-6.4,7.6-11.6,16-11.6h22.9
					c8.8,0,16.4,5.6,16.4,12c0,3.6-0.8,6.4-2,8c-4.8,4.8-20,4.4-31.3,4.4c-0.4,0-0.8,0-1.6,0c-2,0-3.6,0-5.2,0
					c-17.2,0-27.7,6.4-33.7,12c-7.6,7.2-12.4,17.6-12.4,28.1c0,10.4,4,20,11.2,27.3c5.6,5.2,15.2,11.6,30.9,11.6h27.3
					c24.1,0,43.7-17.6,43.7-39.7v-51.3C309,230.1,289.4,212.5,265.3,212.5z M281.7,303.5c0,6.4-7.6,12-16.4,12H238
					c-11.2,0-15.2-6.4-15.2-11.6c0-3.2,1.2-6,3.6-8.4c3.2-3.2,8.4-4.8,14.8-4.8c2,0,4.4,0,6.4,0l0,0c11.2,0,23.3,0.4,33.7-2.8v15.6
					L281.7,303.5L281.7,303.5z"/>
				<path class="st0" d="M390.4,212.5H376c-28.1,0-50.9,22.9-50.9,50.9v118.7h27.3v-43.7c6.4,3.2,13.6,4.8,20.9,4.8H388
					c29.3,0,52.9-23.7,52.9-52.9v-26.9C441.3,235.3,418.5,212.5,390.4,212.5z M414.1,290.3c0,14-11.6,25.7-25.7,25.7h-14.8
					c-11.6,0-20.8-9.2-20.8-20.8v-31.7c0-12.8,10.4-23.7,23.7-23.7h14.4c12.8,0,23.7,10.4,23.7,23.7v26.9L414.1,290.3L414.1,290.3
					L414.1,290.3z"/>
				<path class="st0" d="M352.3,382.1L352.3,382.1L352.3,382.1L352.3,382.1z"/>
				<path class="st0" d="M523.1,212.5h-22.9c-21.2,0-39.3,14-42.9,32.5l26.9,6c0.4-6.4,7.6-11.6,16-11.6h22.9
					c8.8,0,16.4,5.6,16.4,12c0,3.6-0.8,6.4-2,8c-4.8,4.8-20.1,4.4-31.3,4.4c-0.4,0-0.8,0-1.6,0c-2,0-3.6,0-5.2,0
					c-17.2,0-27.7,6.4-33.7,12c-7.6,7.2-12.4,17.6-12.4,28.1c0,10.4,4,20,11.2,27.3c5.6,5.2,15.2,11.6,30.9,11.6h27.3
					c24.1,0,43.7-17.6,43.7-39.7v-51.3C566.8,230.1,547.2,212.5,523.1,212.5z M539.6,303.5c0,6.4-7.6,12-16.4,12h-27.3
					c-11.2,0-15.2-6.4-15.2-11.6c0-3.2,1.2-6,3.6-8.4c3.2-3.2,8.4-4.8,14.8-4.8c2,0,4.4,0,6.4,0l0,0c11.2,0,23.3,0.4,33.7-2.8v15.6
					L539.6,303.5L539.6,303.5z"/>
				<path class="st0" d="M731.2,212.5h-22.9c-21.2,0-39.3,14-42.9,32.5l26.9,6c0.4-6.4,7.6-11.6,16-11.6h22.9
					c8.8,0,16.4,5.6,16.4,12c0,3.6-0.8,6.4-2,8c-4.8,4.8-20,4.4-31.3,4.4c-0.4,0-0.8,0-1.6,0c-2,0-3.6,0-5.2,0
					c-17.2,0-27.7,6.4-33.7,12c-7.6,7.2-12.4,17.6-12.4,28.1c0,10.4,4,20,11.2,27.3c5.6,5.2,15.2,11.6,30.9,11.6h27.3
					c24.1,0,43.7-17.6,43.7-39.7v-51.3C774.6,230.1,755.3,212.5,731.2,212.5z M747.3,303.5c0,6.4-7.6,12-16.4,12h-27.3
					c-11.2,0-15.2-6.4-15.2-11.6c0-3.2,1.2-6,3.6-8.4c3.2-3.2,8.4-4.8,14.8-4.8c2,0,4.4,0,6.4,0l0,0c11.2,0,23.3,0.4,33.7-2.8v15.6
					L747.3,303.5L747.3,303.5z"/>
			</g>
		</g>
	</g>
</g>
</svg>
